# Blender v2.63 (sub 0) OBJ File: 'testscene.blend'
# www.blender.org
mtllib testscene.mtl
g Plane
v 5.000000 0.000000 -5.000000
v 5.000000 0.000000 5.000000
v -5.000000 0.000000 4.999999
v -4.999998 0.000000 -5.000002
vn 0.000000 1.000000 0.000000
usemtl 
s off
f 1//1 4//1 3//1 2//1
g Cube
v 0.500000 0.000000 -0.500000
v 0.500000 0.000000 0.500000
v -0.500000 0.000000 0.500000
v -0.500000 0.000000 -0.500000
v 0.500000 1.000000 -0.500000
v 0.500000 1.000000 0.500000
v -0.500000 1.000000 0.500000
v -0.500000 1.000000 -0.500000
vn 0.000000 -1.000000 0.000000
vn 1.000000 0.000000 0.000000
vn -0.000000 -0.000000 1.000000
vn -1.000000 -0.000000 -0.000000
vn 0.000000 0.000000 -1.000000
usemtl Material
s off
f 5//2 6//2 7//2 8//2
f 9//1 12//1 11//1 10//1
f 5//3 9//3 10//3 6//3
f 6//4 10//4 11//4 7//4
f 7//5 11//5 12//5 8//5
f 9//6 5//6 8//6 12//6
